<?xml version="1.0" encoding="utf-8"?>
<!-- Generator: Adobe Illustrator 25.2.1, SVG Export Plug-In . SVG Version: 6.00 Build 0)  -->
<svg version="1.1" id="Layer_1" xmlns="http://www.w3.org/2000/svg" xmlns:xlink="http://www.w3.org/1999/xlink" x="0px" y="0px"
	 viewBox="0 370 1920 300" style="enable-background:new 0 0 1920 1080;" xml:space="preserve">
<style type="text/css">
	.st0{opacity:0.8;fill:#A188C9;}
	.st1{opacity:0.8;fill:#33C6D8;}
	.st2{opacity:0.8;fill:#FF6F6F;}
	.st3{opacity:0.8;fill:#FFBA45;}
	.st4{opacity:0.8;fill:#B2E25A;}
</style>
<polygon class="st0" points="466.91,655.91 694.15,655.91 707.15,590.55 479.91,590.55 "/>
<polygon class="st1" points="1421.38,590.63 1674.78,589.41 1660.9,530.19 1458.8,530.19 "/>
<polygon class="st2" points="501.67,457.38 727.83,457.38 740.83,392.02 513.6,392.02 "/>
<polygon class="st3" points="484.79,551.48 676.17,551.48 687.12,486.12 496.51,486.12 "/>
<polygon class="st4" points="588.53,391.74 513.47,391.74 465.77,657.17 540.83,657.17 "/>
<polygon class="st0" points="865.72,391.74 790.65,391.74 742.95,657.17 818.02,657.17 "/>
<polygon class="st2" points="1156.76,391.74 1081.7,391.74 1033.99,657.17 1109.06,657.17 "/>
<polygon class="st0" points="1553.27,392.74 1628.34,392.74 1692.04,658.17 1616.97,658.17 "/>
<polygon class="st0" points="1388.14,392.74 1313.08,392.74 1265.38,658.17 1340.44,658.17 "/>
<rect x="205.47" y="391.29" class="st1" width="255.32" height="60.77"/>
<polygon class="st3" points="1387.34,392.74 1380.21,439.06 1217.09,573.02 1157.15,513.08 1313.08,392.74 "/>
<polygon class="st3" points="1621.82,392.74 1546.76,392.74 1377.06,658.17 1452.12,658.17 "/>
<polygon class="st4" points="381.17,391.5 306.11,391.5 258.4,656.92 333.47,656.92 "/>
<polygon class="st1" points="742.6,656.91 969.84,656.91 982.84,591.55 754.74,591.55 "/>
<polygon class="st1" points="1080.98,391.57 1074.21,430.57 1216.66,573.02 1285.74,516.64 1155.26,391.74 "/>
</svg>
